<svg width="95" height="81" viewBox="0 0 95 81" fill="none" xmlns="http://www.w3.org/2000/svg">
<g clip-path="url(#clip0_9_18)">
<path d="M41.9297 7.05273C44.4557 2.85305 50.5444 2.85306 53.0703 7.05273L89.5137 67.6504C92.1188 71.9826 88.9986 77.5 83.9434 77.5H11.0566C6.00134 77.5 2.88118 71.9826 5.48633 67.6504L41.9297 7.05273Z" stroke="#F96D69" stroke-width="7"/>
<path d="M51.2869 30.0909L50.5028 54.3125H43.4972L42.7131 30.0909H51.2869ZM46.9915 65.4943C45.7756 65.4943 44.7301 65.0625 43.8551 64.1989C42.9915 63.3352 42.5597 62.2898 42.5597 61.0625C42.5597 59.858 42.9915 58.8295 43.8551 57.9773C44.7301 57.1136 45.7756 56.6818 46.9915 56.6818C48.1619 56.6818 49.1903 57.1136 50.0767 57.9773C50.9744 58.8295 51.4233 59.858 51.4233 61.0625C51.4233 61.8807 51.2131 62.625 50.7926 63.2955C50.3835 63.9659 49.8438 64.5 49.1733 64.8977C48.5142 65.2955 47.7869 65.4943 46.9915 65.4943Z" fill="white"/>
</g>
<defs>
<clipPath id="clip0_9_18">
<rect width="110" height="93" fill="white" transform="translate(-15 -9)"/>
</clipPath>
</defs>
</svg>
